<svg xmlns="http://www.w3.org/2000/svg" width="1365.3" height="1365.3" version="1.0" viewBox="0 0 1024 1024">
  <path d="M502 85c-10 3-19 11-23 20-3 6-3 6-6 5-5-2-15-1-21 2-8 4-11 8-11 17v6l-7 1c-14 3-26 11-36 24a87 87 0 0 0-18 53l-9-2c-11-3-34-3-48-1a127 127 0 0 0-89 177c6 12 22 32 34 43l5 4-14 14a137 137 0 0 0-21 177 180 180 0 0 0 48 41l-1 15c-3 28 4 60 18 85 12 20 20 30 38 43 15 11 37 22 50 25l8 1v6c0 9 3 17 10 24 7 8 13 11 23 12h7v4c0 9 8 20 16 23h17c2-1 3 0 4 4 5 16 20 30 32 30 5 0 15-6 21-12 5-5 12-18 12-20 0-1 2-2 9-2s9 0 14-2c8-5 13-12 13-21v-5h8c13-1 24-9 30-21 3-6 3-8 3-14l-1-7h4c7-1 24-8 34-12a140 140 0 0 0 78-133v-24l7-3a128 128 0 0 0 56-59l5-19c3-11 3-12 3-31a140 140 0 0 0-45-106l-14-14 5-3a111 111 0 0 0 42-61c4-16 6-27 4-42l-3-19c-8-39-32-69-70-87-19-10-35-14-59-13-12 1-21 2-27 5-2 0-2 0-2-5 0-7-3-21-6-29s-11-19-20-28-17-14-26-15l-7-2v-7c-1-8-2-12-8-15s-20-4-26-2c-1 1-2 0-3-3-1-6-8-14-13-18-5-3-14-6-18-6l-6 1zm14 10c5 3 11 9 14 15l2 5-6 11-7 19c-2 9-5 29-5 37v6h-12l-1-14c-2-22-7-44-14-54-3-5-2-7 2-14 5-8 16-15 21-13l6 2zm-42 27c7 5 13 13 16 26 3 10 6 33 6 38 0 3 0 3-3-4-6-14-12-25-19-32-6-6-7-7-14-9-10-3-10-3-11-7 0-5 3-10 7-12 5-3 14-3 18 0zm86-1c4 2 6 6 6 11-1 4-1 4-8 8-11 5-15 9-20 17-7 10-9 12-12 24l-4 9c-3 0 1-36 5-46 2-6 10-18 13-20 6-4 13-5 19-3zm29 27c9 5 14 9 21 18 9 11 13 19 15 32l1 14c-1 4-1 5-5 7l-6 2 1-5c2-6 1-18-2-25s-15-23-22-29c-8-5-19-9-23-7-3 1-2 2 4 3 5 1 15 8 17 11l2 3h-12c-12 1-13 1-20 4-9 4-16 12-21 22l-4 7-3-4c-3-6-3-7 1-18 3-8 6-13 13-19l6-7-1-2h-1c0-2 5-5 14-8 11-3 18-2 25 2zm-143-1 9 3 6 1h-5c-2 0-4 0-2 1l3 1 8 5c10 7 19 18 22 31l1 5-4 4-5 5-3-7c-8-16-24-25-45-24h-9c0-1 10-10 14-12l10-3c5-1 6-2 4-2-7-2-16 0-24 6-5 4-17 19-22 28-4 7-6 13-6 24l-1 9c-2 0-8-7-8-9 0-16 8-37 18-49 5-6 16-14 22-16s14-3 17-1zm0 9h-2v-1l2 1zm5 27 11 8c7 7 11 14 12 23 0 6 0 7-5 9l-3 2-3-6c-8-18-27-27-38-18-5 4-7 10-2 7 4-3 7-2 10 1 3 5 4 8 2 13-3 5-7 7-15 7s-12-1-12-4v-9l1-1-1-2-1-7c1-12 9-20 21-24 6-2 17-2 23 1zm139-1c9 2 16 9 18 18 2 6 0 13-4 18-2 3-1 5 1 4h2v3c-3 3-6 4-14 4l-8-2c-3-3-5-7-5-11 0-6 7-11 12-10 4 1 2-2-3-6-4-3-5-3-11-3-10 1-17 6-24 20l-5 8-4-3-3-4 1-7c3-14 11-25 25-30 5-1 16-1 22 1zm-72 18c6 3 13 10 14 14v4l-7-2a75 75 0 0 0-29 0l-8 1-4 1 4-11c4-6 15-11 23-9l7 2zm-147 20c15 4 33 15 45 28l6 7-2 6-4 6-3-3-8-9a87 87 0 0 0-60-22 95 95 0 0 0-66 27c-10 9-16 17-21 27-8 17-11 30-10 52a89 89 0 0 0 50 79c12 6 18 7 33 8 11 0 14 0 21-2 20-5 38-18 45-33 5-11 6-19 6-36l2-15c1 1 6 14 8 23 2 10 1 20-6 33-6 12-12 19-25 29-22 18-52 21-85 8-16-6-30-16-42-32-17-22-25-49-22-79 3-32 19-61 45-80a113 113 0 0 1 93-22zm77 9c-2 3-2 2-1-6l2-6v5l-1 7zm245-10c21 5 40 16 60 35a111 111 0 0 1 31 105c-4 18-10 30-22 46a96 96 0 0 1-64 35 80 80 0 0 1-91-51c-4-11-4-26 1-39 1-5 4-9 5-8v7c-2 10 0 25 4 33 3 8 11 20 17 26 7 6 18 13 28 16 12 3 28 3 42-1 23-5 39-16 52-35 7-11 10-18 13-34 4-19 3-35-4-54-5-15-11-26-21-35a98 98 0 0 0-81-32 87 87 0 0 0-61 34c-1 2-1 2-5-6l-3-6 3-4a106 106 0 0 1 58-33c6-1 31 0 38 1zm-128 6-1 3v-7l2-1-1 5zm-51 1c8 5 19 25 26 46 5 16 6 23 7 39 0 13 0 16-3 28-3 15-5 21-12 35-8 15-16 23-24 24-4 0-5 0-8-3-5-4-14-17-18-26-8-19-13-39-12-58 2-34 17-74 33-85 4-3 6-3 11 0zm59 5c0 4 0 4-1 3l-2-6c0-6 2-3 3 3zm-82-5-4 5c-8 10-19 37-23 58-2 13-3 36-1 46 4 24 12 46 23 58 5 5 4 6-2 4l-6-2c-3-1-17-11-24-19a91 91 0 0 1-25-51c-3-15-3-22 1-35a94 94 0 0 1 45-60c10-5 16-6 16-4zm46 2c8 3 13 6 20 13 18 18 29 41 32 65 0 8-2 30-5 37-8 23-22 39-49 53l-9 5 5-8c22-29 30-69 21-111-4-17-14-40-23-51l-4-5h3l9 2zm-97 7c-2 4-4 5-3 1 2-4 3-7 4-5l-1 4zm144 4v3c-1 2-5-3-5-6 0-2 0-2 2-1 1 1 3 2 3 4zm-138 6a93 93 0 0 0-24 42c-5 15-6 24-3 39s9 32 13 39 15 18 23 23c9 6 6 7-4 2-16-9-30-30-35-52l-2-9-3-3c-2-3-2-5-2-10 2-10 8-33 11-40 6-13 15-25 22-31l12-9-9 10zm131 3c9 9 13 15 19 32 8 21 10 41 6 54l-4 14c-5 20-17 35-35 43-5 3-8 3-4 0 8-6 18-16 25-26a99 99 0 0 0-14-119l-8-10c0-1 7 4 15 12zm-146-9c1 3 0 7-2 7v-8c1-2 2-1 2 1zm-7 3h-1l-2-2h2l1 2zm168-1c0 2-2 5-3 4l-1-3c0-2 1-3 2-3l2 2zm-223 1c12 4 26 13 34 22 7 8 8 10 6 17l-2 8-1 3-6-7c-6-7-9-10-19-15s-22-8-31-8c-13 0-31 5-41 12-5 4-14 14-14 17l-4 6-5 9-6 12c-2 3-2 5-2 18 0 12 0 15 3 22 4 15 14 27 26 33 6 3 21 4 36 4h10l-24 6-5 2 5 2c23 5 47-8 57-32 5-10 4-26-1-36-3-6-12-16-16-18-7-2-16-1-19 4-3 4-2 6 3 10 4 4 4 5 4 9 0 8-4 14-13 17-5 2-14-1-22-7l-3-3 3 4c7 10 22 14 32 9 8-4 13-20 8-28l-2-4h3c7 0 15 11 17 22 1 15-8 27-25 30-10 2-23-3-31-12s-10-16-9-31c1-14 7-23 19-29 13-7 30-8 43-2 7 3 16 13 19 21 3 6 4 7 4 20-1 17-2 27-8 37-7 15-24 27-41 31-11 3-28 2-40-2a82 82 0 0 1-55-81 90 90 0 0 1 25-66c15-15 27-23 45-27 9-2 35-1 43 1zm320-1c11 2 20 6 31 13s16 11 22 18c11 14 16 25 20 44 2 12 3 21 1 33-8 42-39 70-78 70-27 0-49-13-61-35-5-9-6-15-6-31 0-21 3-30 16-40 9-7 15-9 29-9 10 0 11 1 18 4 14 7 20 17 20 33 0 10-1 16-5 24-4 7-6 9-10 12-17 8-36 6-44-6-4-5-5-14-4-20 1-7 5-14 8-17 3-2 11-5 12-4l-2 5c-2 3-2 5-1 9l2 6c4 12 21 18 31 11 5-2 6-3 7-6 0-2 0-2-3 0-7 5-16 6-22 2-7-5-10-14-6-22 1-4 4-6 7-6 5 0 1-6-5-9-12-4-28 4-35 19-3 6-4 19-3 27 2 17 18 33 37 38 6 2 21 3 24 1 2-1 2-1-7-3-14-4-17-5-19-7h10l3 1c1 2 17 1 23 0 14-4 25-12 33-24 7-12 8-16 8-33 1-18-1-23-8-39-4-7-6-10-13-17a62 62 0 0 0-70-16c-18 5-27 12-35 26-4 5-3 6-6-8-3-10-3-11 3-18 11-14 28-23 47-26h31zm-325 34 16 7-9-2c-8-3-11-4-23-4l-8-1c-1-2 19-1 24 0zm321 1h-10c-20-1-36 5-47 16l-6 5c-1-1 6-8 13-12 7-6 15-9 23-10 7-1 24-1 27 1zm-320 7c7 1 21 7 23 10 4 3 4 5 0 2-5-3-10-5-18-7-10-2-30-4-29-2 1 1 0 1-2 1l10 1c17 1 28 3 36 7 6 3 6 4 6 7l-1 4-3-3c-5-6-26-10-39-8-14 2-30 13-37 24-6 10-7 28-3 44l3 14 1 4 1-5-1-5 4 5c2 2 3 5 3 7s0 2-3 1c-6-1-12-6-17-12a53 53 0 0 1-12-42l5-14a550 550 0 0 0 14-18c5-6 16-12 18-12h3c3-3 26-5 38-3zm324 1c7 1 16 5 20 9 3 2 2 4-1 2l-13-5c-10-3-11-3-21-3-13 0-32 2-38 4l-5 2 1-1c13-8 42-12 57-8zm2 8 11 4 10 7c5 5 7 7 12 17 6 13 8 22 6 29 0 5-4 14-5 16l-4 5-4 5-1-17c1-18 0-13-2 8 0 11 0 12-3 15l-3 2c-2 0-1-11 1-20 4-18 4-31-3-43-4-10-17-21-27-24-8-2-21-3-31-1-8 1-8 1-19 9l1-2c2-5 10-9 19-10 9-3 11-3 24-3l18 3zm-294 7c2 3 3 5 3 9l1 6-3-2-2-4c-2-3-3-12-2-12l3 3zm231 1c-2 4-11 16-13 16-1 0 0-9 2-14 3-5 4-5 2 0l-1 6c1 2 1 2 2-1 5-8 10-14 8-7zm-221 21 1 2-2-2-1-2 2 2zm297 63h-2v-9c1-2 2-2 2 2v7zm-280 20-1 21-2 1-1 4c-1 3-1 0-1-22l2-26c1-3 2 3 3 22zm-96-18c1 1-1 2-3 1-2 0-3-3-1-4 0-1 4 1 4 3zm265 30a315 315 0 0 1 0 24c0-6-1-8-3-12s-2-4-2-22c1-19 1-22 3-20 1 1 2 11 2 30zm103-31-1 1h-1l1-1h1zm-265 4 2 17v14l-3 1-3 1 1-17 1-18c1-2 2-1 2 2zm172 31-1 21-3 2c-2 0-3-43-1-50v-3l2 5 3 25zm-162-22 1 12v9h-7l2-13 1-14 3 6zm142-4 1 15v13l-2-1-3-1v-14l1-13c1-2 2-1 3 1zm-8 15c1 10 1 10-1 10s-2-1-2-10c0-12 0-13 1-12l2 12zm-125-10-1 7c-1 3-2 6-1 7l-2 6v-5c1-15 1-16 3-16l1 1zm-36 7a913 913 0 0 1 4 36l1 2-4-1c-2-1-3-2-3-9-1-16-1-34 1-34l1 6zm142-2c5 3 7 7 8 12v4h-17c-3 1-10 8-14 14-4 5-8 19-10 31l-3 12c-1 3-3 24-4 62l-2 34a2487 2487 0 0 0 2 250c1 29 4 43 13 61 5 12 4 19-6 32l-10 9c-5 4-5 4-8 2-5-3-11-9-15-14-3-4-4-7-5-13-1-7-1-8 2-16 8-18 12-34 14-54 3-40 4-159 1-179a305 305 0 0 0-41-123c-11-16-29-34-44-42l-17-8c-23-8-28-12-28-18 0-8 6-12 19-13a70 70 0 0 1 51 23l17 21c12 18 30 59 34 77l4 29c2 21 3 25 5 22 2-1 2-30 1-46l-3-44c-2-54-5-71-14-90-3-8-11-16-16-19l-9-2h-6v-3c0-4 3-8 7-10s13-2 17-1c3 2 12 11 13 14 2 3 3 4 3 1 0-5 10-13 15-13 3 0 10 6 13 11l1 3 2-3c4-5 14-13 18-14s8 0 12 1zm53 9c2 3 2 6 2 15 0 11-1 11-3 12h-2v-15l1-16 2 4zm-201 20v7h-5v-12l1-12c1-2 3 8 4 17zm210-10 2 9c0 6 0 6-2 6-3 0-3 0-3-9 0-8 1-10 3-6zm-220 6v7c1 3-1 4-3 1-2-2-1-13 1-13l2 5zm183 3c6 7 4 15-8 28-19 20-34 44-42 66-1 5-4 10-5 11-1 2-1 2-2-1-1-4 1-23 4-33 3-13 11-35 15-44 7-17 15-25 25-29 6-2 9-1 13 2zm-129 1c5 3 11 10 18 22a222 222 0 0 1 23 75c0 13-1 14-4 4a202 202 0 0 0-47-75c-10-10-12-12-12-18 0-4 1-7 5-9 5-3 11-3 17 1zm175-1v5c-2 1-3-1-3-4 0-2 1-3 3-1zm-237 3c0 2-1 3-2 3v-4c1-3 2-2 2 1zm-99 7 3 1 2 2-8 9c-24 23-38 54-40 89-1 36 9 64 33 82 8 6 14 9 24 13 9 3 32 4 41 1 19-5 34-21 35-40 0-9-1-16-6-23-6-9-17-15-28-14-4 1-8 4-8 6s1 2 6 2c7 0 12 2 14 5s1 10-1 15c-3 3-9 6-16 6-11 0-22-9-24-21-1-7-1-13 3-21 9-19 34-25 54-13 7 4 17 16 21 24 7 15 8 37 1 54a70 70 0 0 1-68 43c-14 0-17 0-25-2l-14-4c-16-7-40-29-50-46-9-15-13-29-15-49a135 135 0 0 1 54-119c5-3 9-3 12 0zm450 1c15 10 29 27 39 46 12 24 16 41 15 68a110 110 0 0 1-62 98c-15 6-20 7-38 7-20 0-28-1-40-8a66 66 0 0 1-37-61c0-14 2-25 7-33 4-8 14-16 23-21 7-3 8-4 17-4 12 1 19 3 26 10 8 8 12 23 8 34-3 9-14 17-23 17-7 0-15-8-15-15 0-8 4-11 14-11 6 1 7 0 6-2-1-5-13-7-21-3-6 2-14 11-17 17-4 7-5 13-2 23 2 10 4 14 11 21 22 22 63 21 90-3a87 87 0 0 0 30-70 131 131 0 0 0-53-109l14-5 8 4zm-261 7-1 4-4-13c0-3 4 4 5 9zm157-1c6 3 10 8 10 12-1 4-7 8-22 14a133 133 0 0 0-80 71c-11 21-20 55-24 83-3 25-5 8-3-21 4-40 4-41 15-68 16-42 30-62 50-77 8-6 20-13 27-15 9-2 21-1 27 1zm-319 0 5 3c0 1 1 1 4-1l5-2-13 12a95 95 0 0 0-25 33l-8 16c-4 9-4 10-4 16 1 8 4 16 10 22 4 5 5 7 3 11-3 4-7 7-11 7-10 0-19-10-22-28-4-14-5-6-2 12 1 8 11 28 21 42 9 11 24 21 37 24 8 2 21 1 27-2 12-6 19-14 23-25l1-5 2 4c2 6 1 15-1 22-3 7-12 16-20 21-9 4-24 4-36 1-28-7-47-26-56-54-2-7-2-9-2-25l1-23 3-12a108 108 0 0 1 38-64c8-6 11-7 20-5zm394 2c25 12 44 39 49 71l4 16c2 9 1 26-2 36-3 13-13 32-21 40a68 68 0 0 1-49 20c-27 0-46-16-45-38 0-4 2-8 3-11l1-4 1 5c2 9 6 17 12 22 7 7 11 8 24 9 13 0 18-1 28-7 9-5 17-13 26-27l11-15c4-7 6-13 7-25 0-11-1-11-3-1-4 11-6 16-11 20-7 6-13 6-19 1-4-4-4-8 0-14 7-9 11-20 11-30l-1-5-1 1c0 2-2 1-3-3a134 134 0 0 0-46-61c-2-2 5 0 10 2l5 2-3-2-3-3 3-1c5-1 5-1 12 2zm-349 19c1 17 0 57-1 57-4 0-4-1-4-38 1-35 2-46 3-36l2 17zm295-16c2 9 2 22 2 46v25l-3 1h-3v-28c1-34 2-48 3-48l1 4zm-304 4 1 35v31l-3 1h-3v-33l2-36c1-3 2-3 3 2zm314 4 2 55c-1 8-1 8-4 8h-3v-33c0-34 1-41 4-37l1 7zm10 18v46h-3l-2-1-1-24c0-22 1-39 3-43l1-2c1 0 2 5 2 24zm-146-19-2 4 1-5 2-3-1 4zm-187-1a376 376 0 0 1-1 66h-3c-2 0-1-57 1-66 0-2 2-3 3 0zm-9 3 1 34v32l-3 1-3 1v-32c1-31 1-38 3-38l2 2zm350 3 1 34c0 31 0 31-4 29l-1-30c0-32 1-38 3-37l1 4zm-358 38c0 28 0 28-2 31l-3 3v-40c0-30 1-35 4-27l1 33zm367-25 1 57-4-2-2-1 1-28 1-33c1-8 2-5 3 7zm-323 5-1 8c-1 5-1 10 1 17s2 20 0 20c-5 0-5 0-5-28v-28l3 3 2 8zm-54-9 1 28c1 32 0 39-2 42l-2 2-1-6a899 899 0 0 1 4-66zm332 16 1 25 1 11-3 1-4 1c-2 0-1-5 1-14s3-13 0-20l-1-12c1-7 2-9 4-7l1 15zm54-3 1 60-4-5-3-4 1-21a791 791 0 0 0 2-40c1-5 3 1 3 10zm-324-8c1 1 1 1-2 4s-3 3-3 1l1-4c0-2 2-3 4-1zm261 3 1 4-3-2c-3-3-3-5 0-5l2 3zm-331 7a634 634 0 0 1-1 95l1 19-4-2-2-3v-22l1-51c1-29 2-41 3-41l2 5zm98 0c14 4 34 22 47 41 13 20 25 49 29 71l6 23a251 251 0 0 1 3 94c0-4-4 8-9 25-5 19-9 27-18 35-3 4-8 9-11 10-4 3-14 7-18 7s-16-7-18-11c-3-6-2-15 3-16h7c7 0 12-2 21-9 8-7 13-14 19-24 4-8 5-9 9-24 3-9 3-12 3-23 0-26-8-52-26-82-6-10-18-23-29-30s-12-9-13-14c-1-7 2-11 9-13 6-1 22 12 32 27 6 9 15 25 18 34 4 9 15 49 15 57 0 2 0 2 1-1s0-17-2-29c-3-24-19-58-35-77-7-8-13-13-29-27-14-11-18-13-29-18-14-7-18-13-14-21 4-7 17-10 29-5zm305 2 1 58c0 52 0 52-2 53-4 3-4 0-3-12v-22a1868 1868 0 0 1 2-82l2 5zm-83-2c4 2 7 4 8 9 4 8-1 14-17 20-9 4-16 8-23 14l-14 11c-11 8-19 17-28 31-10 14-13 20-20 43-8 27-9 30-9 38 0 7 1 7 3-2l2-11c1-7 18-46 24-56 5-9 15-22 21-28 5-5 13-9 17-9 7 0 10 4 10 11s-2 11-9 14c-6 3-16 11-22 17-18 19-36 57-38 81 0 9 1 32 4 40 0 4 3 11 6 17 5 9 6 10 14 18 10 10 12 13 3 8l-6-4 6 7c9 9 14 10 26 10 8-1 8-1 11 2s3 9 0 14c-5 7-16 12-24 11-6-1-13-5-19-10s-15-18-18-26c-6-12-13-37-15-51a262 262 0 0 1 2-71c2-6 2-6 2-3a299 299 0 0 1 13-59c11-30 21-47 39-65 10-10 20-17 28-21 7-3 17-3 23 0zm-328 31c0 22 0 22-2 21-4-4-4-7-3-23l3-18c1-6 2 0 2 20zm420-15a131 131 0 0 1-1 36l-3 3v-37c0-7 1-8 2-7l2 5zm-429 26-1-1v-13c0-1 2 13 1 14zm437-6c0 3-2 8-3 8l-1-3 1-9v-6l2 4 1 6zm-351-7 2 5 1 7c0 1 0 2-2 2-3 0-4-2-4-9 0-6 1-7 3-5zm260 7v7l-3 1c-2-1-1-13 1-13l2 5zm-249 6v9l-3-2c-3-3-2-14 1-14l2 7zm240 2-1 7h-3c-1-1 0-9 1-13 1-2 1-2 2-1l1 7zm-234-5c2 0 2 2 2 11v11l-2-3c-2-2-2-4-2-11v-9l2 1zm225 12c0 9 0 10-3 11l-2 2v-11c1-10 1-12 4-12l1 10zm-215 7c-1 13-2 16-3 12v-23c0-4 1-4 2-3l1 14zm205-6 1 9-3-2c-3-4-4-6-2-10 1-4 3-6 4-6v9zm-197-1c0 3-2 7-3 6v-5c0-4 2-5 3-1zm307 29 1 14c0 11 0 12-2 14l-3 1v-17c0-18 0-19 4-12zm-420 13v14l-3-2-3-2v-10c0-9 0-10 3-12l3-2v14zm-9 0c0 7-1 8-4 2-2-4-1-9 1-9 3-1 3 0 3 7zm437-7c2 2 1 10-1 13l-2 2v-6l-1-8c0-2 2-3 4-1zm-315 11a1264 1264 0 0 1 3 79c2 2 2-12 2-35-1-28 0-46 2-45 2 2 2 10 3 49a396 396 0 0 0 3 36v-29l1-39 1-12 1 4c2 3 2 10 3 32a1466 1466 0 0 1 3 39c0-39 1-59 2-62l1-3 1 3c1 2 2 11 2 50 0 41 0 47-1 43-5-12-12-22-20-26-5-3-20-4-25-2l-4 1v-12c1-12 2-18 4-18l2 12c0 13 1 15 2 13l1-17c1-14 1-17 3-20l2-4v16c1 20 2 25 3 25l2-51c0-24 1-33 2-33l1 6zm187 1v5l1 40 1 38-3 1-3 2 1-82c0-6 2-8 3-4zm8 21a581 581 0 0 1 1 60l-3 1c-2 0-2-3-2-29 0-34 1-57 2-51l2 19zm-17-15 2 43v39l-3 3c-3 2-3 2-3 0v-37l1-43 1-8 2 3zm113 7c0 5 0 6-2 7s-2 1-2-6l1-9c1-2 1-2 2-1l1 9zm-388-6c1 3 2 12 0 12l-2-1c-2-1-2-2-2-8 0-7 1-8 4-3zm266 5c1 3 2 14 2 41a387 387 0 0 0 1 44l-4 6-3 5v-39c0-39 1-60 2-60l2 3zm112 4-1 6c-2 1-2 0-2-4 0-5 0-6 2-6l1 4zm-369 1-1 4c-2 0-2-1-2-4 0-5 2-5 3 0zm360 3c0 2 0 3-1 2l-1-3 1-3 1 4zm-351-1-1 2c-1 2-3 0-3-3 1-1 3-1 4 1zm239 1 1 4v139l-3-2-3-3 1-68a671 671 0 0 1 4-70zm-124 56 2 64c1 14 0 18-4 20-3 1-3 1-3-1 0-3 0-3-1 0s-7 7-8 6l-1-10c0-8 0-8-1-4l-1 12c0 7-1 9-4 9-1 0-2-2-2-6l-2-8v-7c-1-2-1-2-2 1l-6 5c-4 2-5 2-12 1l-13-3c-5-2-13-9-16-15-2-5-2-7-2-16s0-11 2-16c10-19 35-25 48-11 4 6 6 10 7 16 1 9-3 16-13 22-11 8-27 0-27-13 0-8 4-14 12-18 5-3 4-4-1-4-11 2-16 7-18 19-3 14 7 27 23 29 7 0 13-2 22-8 5-3 6-4 8-10l3-6 1 4c0 5 2 11 3 10l1-55a1392 1392 0 0 1 3-58c1 1 2 17 2 51zm116-39v116l-1 3-5-6c-9-11-10-13-9-45 0-34 1-52 4-56l2-4v8l1 48c0 47 0 48 1 42l1-32c0-27 1-67 3-75 0-5 2-5 3 1zm-108 9 3 92c0 4-3 13-5 13s-2-14-2-56c0-45 1-58 2-56l2 7zm162 19v16h-3l-3-1v-16l1-20v-4l2 5c2 3 2 8 3 20zm-154 2c2 6 2 11 2 34 1 22 0 27-1 30l-2 4-1-3-1-39v-35l3 9zm162-6 2 10v12l-4-1-3-1v-10l1-12v-3l1 3 3 2zm-238 13c0 9 0 9-2 9l-3 1 1-20c2-1 3 0 4 10zm247-6 1 8 2 10c0 4 0 4-4 1l-3-3 1-9c0-8 1-10 2-9l1 2zm-257 4 2 8c0 5 0 6-2 8l-3 1c-1-1 0-20 2-20l1 3zm-7 9 1 8c1 4 1 5-3 9-7 10-7 14-7 42v24l-4-5-3-4 1-16 1-35c0-19 1-27 3-27l1 6 4 19 1-14 2-15c1-1 2-1 2 1l1 7zm175 30c0 11-1 14-2 8-3-11-2-38 1-46 1-2 2 24 1 38zm98-37 2 5 2 8 1 10v6l-3-4-5-7v-11c0-8 1-9 3-7zm12 15c2 8 2 14 2 38 0 31-1 33-5 37-2 1-2-1-2-27v-37l1-21c0-4 3 2 4 10zm-357-7 4 3v20c0 20 0 21 3 32 7 26 13 37 34 58 18 19 27 25 47 29s36 4 48-2c10-5 25-15 32-22 8-8 16-22 21-38l5-12c1-1 1-1 1 3 0 7-2 15-7 32-12 36-31 51-65 53-24 2-49-6-75-23-8-6-24-21-29-29-12-16-23-43-25-64-1-11 0-43 2-43l4 3zm53 3c2 4 2 67 1 67s-4-4-5-9a489 489 0 0 1 1-56c0-4 2-6 3-2zm312 2 1 8a268 268 0 0 1-1 50c-3 7-4 8-4 3l1-64c1-2 3 0 3 3zm57 5c2 16 0 39-6 57-6 16-18 36-30 49a131 131 0 0 1-80 40c-11 1-28 0-35-3-9-3-20-10-25-15-10-11-22-35-26-53-3-19-2-23 3-8 9 25 13 32 26 45 8 7 18 14 28 17 12 5 29 6 48 3 12-1 20-5 34-15 19-15 32-30 42-50 8-15 11-35 11-59l1-16h2c6-1 6-2 7 8zm-391 7 1 24c7 34 34 63 67 73 8 2 8 3 10 7l3 4h-2c-9 1-20-2-31-7s-16-9-27-19a111 111 0 0 1-31-81c0-14 0-15 4-15 7-1 7-2 6 14zm13-3c0 3 0 5 1 4v30c-1 2-1 2-2-3-3-5-3-18-1-34 0-7 1-8 1-6l1 9zm330 6-1 22-3 7a210 210 0 0 1 2-46c1 0 2 6 2 17zm18-14 1 2c2 0 1 17-2 32-3 20-11 40-22 52a89 89 0 0 1-56 33h-8l1-3 2-5c0-2 1-3 5-3 15-3 33-13 46-26 10-11 21-33 24-50v-31l-1-4h5c4 0 5 1 5 3zm-378 2 1 14c0 23 3 37 13 56 11 22 43 49 63 53l18 1 17 1h6l-3 2c-3 2-5 2-16 3-14 0-20-1-35-5-10-4-17-8-33-24a92 92 0 0 1-27-41l-6-18c-1-6-2-34-1-40 1-4 2-5 3-2zm313 3c5 3 12 10 14 17 3 8 3 21 0 28s-11 14-18 18c-5 2-7 2-17 3l-10-1-1-1-1-2-5-3c-4-1-5 0-5 6 0 11-2 15-5 9-2-2-2-22-2-40v-4l4 6c5 7 12 14 18 17 8 4 20 1 27-6 12-10 10-32-2-37-3-2-5-2-7-2l-2 1 4 4c8 7 10 14 6 22s-11 11-21 8-16-11-16-22c0-10 6-19 16-22 7-3 17-2 23 1zm-156 11c0 3-1 1-1-4l1-4v8zm233-3v20c-3 18-5 25-13 40-10 20-24 35-43 47a86 86 0 0 1-68 8l11-1c17-1 31-3 36-5 22-7 45-26 56-45 5-7 11-25 13-34 1-5 3-15 3-23l2-14c2-1 2-1 3 7zm-334 49c2 3 3 5 3 13 0 11 0 11-5 7-2-2-2-3-2-13l1-11 3 4zm279 9c0 8 0 9-3 12l-4 3c-1-1 1-19 3-24l2-5 1 3 1 11zm-58-2 1 8c0 4 0 5-2 5l-3 1v-9c0-9 1-10 4-5zm-210 10c1 13 3 15 2 3v-7l3 2c4 2 4 3 5 10 0 7 2 6 2-1 0-4 1-5 2-6h2l1 9 2 8 1-6c0-8 1-11 3-11s3 5 3 13l-1 7a74 74 0 0 1-26-9c-3-2-4-3-4-14l-1-9 3 2c2 2 2 4 3 9zm257-3c2 11 1 12-2 14l-3 2 1-10c0-11 1-12 2-12s2 2 2 6zm-215 3-1 5c-2 1-3 1-3-1l-1-3 1-4c2-4 3-3 4 3zm176-4 2 4c0 3 0 3-3 3l-3-4c0-3 0-4 2-4l2 1zm29 3-3 2v1l2 1c2-1 4 1 4 6 1 4 0 4-4 7l-5 2 1-10c0-8 1-9 2-10 4-2 4-1 3 1zm-10 5c2 2 4 14 3 15l-6 1c-4 0-5 0-5-2l-3-7-2-8c-1-4-1-4 1-4l3 2c1 3 1 3-1 3l1 1c2 1 2 2 3 7 0 8 2 8 2 0 0-6 1-15 2-12l2 4zm-204-2c0 3-1 7-3 8v-9c1-2 2-1 3 1zm80 37c-1 5-2 10-5 14l-6 16c-4 12-9 20-17 28a44 44 0 0 1-32 14c-14 0-25-10-27-25 0-3 0-4 1-3h1l8-1 14-1 6-1c2 2-7 6-18 8l-7 2h9c11-1 15-2 29-11a113 113 0 0 0 43-59l2-4v8l-1 15zm36 2c5 10 6 11 18 23 14 14 22 20 31 23 7 3 18 4 21 2s3-2-2-2c-9 0-17-2-10-2 3 0 2 0-2-2-7-1-14-4-12-4l11 2h14c7 0 8 0 8 6 0 4-3 10-6 15-5 7-17 10-27 9-15-2-26-11-36-28a101 101 0 0 1-9-18c-4-7-9-31-9-40v-6l3 6 7 16zm-37 11c-1 1-1 0-1-1s0-2 1-1v2zm1 16c0 14-6 40-13 54-4 8-11 14-17 16-4 1-5 1-8-1-4-2-7-6-8-13l1-5c3 0 14-6 18-10 12-12 25-37 25-50 0-4 0-4 1-2l1 11zm34 10c6 14 10 21 20 31 5 5 9 8 15 9 4 1 4 2 2 10-2 5-6 9-11 11-3 0-10-3-14-7s-9-15-12-24c-3-12-8-36-8-42v-5l2 3 6 14z"/>
  <path d="m277 412 8 5-5-4c-4-3-7-4-3-1zm208-47h1v-2l-1 2zm1 5h1v-2l-1 2zm35 9-1 1h1l1-2-1 1zm-20 2 4 2-1-2h-3zm13 0-2 1h5v-1h-3zm-12 10 2 2v-2l-3-2 1 2zm8-1 2 1 3-1c1-1 0-1-2-1l-3 1zm-57-21 17 18-4-5-8-10c-6-7-6-7-5-3zm18 10 10 14h1l-1-2-5-7-5-5zm79-6-2 4c2-1 5-8 5-9l-3 5zm4 6-6 6 5-5 7-8-6 7zm-17 12c-5 4-7 7-2 3l7-6-5 3zm-164-31c-3 7-7 12-12 15l-2 2c2 0 10-5 12-8 2-2 6-13 5-14l-3 5zm269-4c0 7 3 14 5 16l17 8-5-4c-11-5-13-8-17-20l-1-6 1 6zm18 7c2 3 7 5 13 5h5l-7-1-10-4-4-2 3 2zm4 10h4l-3-1c-2 0-2 0-1 1zm-335-86c-6 1-12 5-22 14-13 12-18 26-16 46l1 11v-12c1-13 3-28 5-31a277 277 0 0 1 30-25l1-1 5-1c3-2 2-2-4-1z"/>
  <path d="m316 303-1 2 2-2c1-2 1-3-1 0zm-15 32v10l1-6-1-4zm0 29c0 5 1 7 1 4v-8c-1-3-1-1-1 4zm164 50h4c1-1 0-1-2-1-3 0-3 0-2 1zm52 501c-4 3-12 4-15 2-1-1-1-1 0 0 3 4 12 3 17-2 2-3 1-2-2 0zM262 631l1 3h1l-1-3h-1zm7 4 2 7-2-10v3zm18 4 2 2c1 1 1 1 0 0l-2-2zm-3 5h1v-2l-1 2zm36 5 4 1h4l-5-1h-3zm446-29-1 1h1l1-1h-1zm-5 8c-3 6-2 8 0 3l2-5c-1-1-1 0-2 2zm-7 10v1l1-3-1 2zm-101 3 5 4c2 0 3 2 2 2 0 0 2 2 5 2l8 2-2-1 1-1-4-2-12-6c-5-3-5-3-3-1zm88-1-1 5c0 2 0 2 1-1v-4zm-215 1h1v-2l-1 2zm-3 52h1v-2l-1 2zm0 4h1v-2l-1 2zm192-23h3c1-1 0-1-1-1-2 0-3 0-2 1zM598 841h2c1-1 0-1-1-1s-2 0-1 1zM245 413c-1 1 0 1 0 0 2 0 3-1 1-1l-2 1zm518 10v1l1-1v-1l-1 1zm2 3v1l1-1v-1l-1 1zm-502 4 1 1 1-1-2-1v1zm489 2v1l1-1v-1l-1 1zm1 5 1 1 1-2h-1l-1 1zM236 630v1l1-1v-1l-2 1zm541 5c-1 1-1 2 1 2l1-1-2-1zm-535 1c-1 1 0 1 0 0 2 0 3-1 1-1l-2 1zm513 20 1 1 1-1-2-1v1zm-487 4 1 1 1-1-1-1-1 1zm485 0 1 1 1-1-2-1v1zm-14 6 1 1h1l-1-1h-1zm-4 3h3c1-1 1-1-1-1l-2 1zm-523 32c-2 3-2 5 0 8 2 4 8 2 8-3s-5-8-8-5zm23 0c-2 1-2 5-1 7 3 5 8 3 8-3 0-4-4-6-7-4zm22 1-2 4c0 2 3 5 4 5 3 0 5-3 5-5 0-6-4-8-7-4zm546-1c-2 2-1 7 1 9 4 3 10-3 7-8-1-2-6-3-8-1zm-45 2c-2 3-1 6 2 7 2 1 3 0 5-3 1-3 1-3-1-4-2-3-5-2-7 0zm20 0c0 4 0 6 3 7 4 2 6 0 6-4 0-3-2-5-5-5l-4 2zm-50 84-2 4c0 2 4 6 6 6s5-4 5-6c0-3-3-6-6-6l-3 2zm25 1c-3 4 1 10 6 8 3-2 4-7 2-10-2-2-6-1-8 2zm-539-1c-2 2-1 8 1 9 5 3 10-3 7-8-1-2-6-3-8-1zm20 0v8l5 1c2 0 3-1 3-4 0-5-5-8-8-5zm24 0-1 5c0 3 2 5 5 5 5 0 7-5 3-9-2-2-5-3-7-1zm24 2c-1 3-1 4 1 6 2 3 6 2 7 0 2-3 2-4 0-6-3-3-7-3-8 0zm496 0c-2 5 1 10 6 9 4-1 5-8 2-10s-7-1-8 1zm21 0c-3 2-2 6 1 8h4c2 0 4-5 2-7-1-2-5-2-7-1zm-118 24 1 1 1-2h-1l-1 1zm-17 9 1 1c1 1 1 0 0 0 0-2-1-2-1-1z"/>
</svg>
